<?xml version="1.0" standalone="no"?>
<!DOCTYPE svg PUBLIC "-//W3C//DTD SVG 20010904//EN"
 "http://www.w3.org/TR/2001/REC-SVG-20010904/DTD/svg10.dtd">
<svg version="1.0" xmlns="http://www.w3.org/2000/svg"
 width="128.000000pt" height="128.000000pt" viewBox="0 0 128.000000 128.000000"
 preserveAspectRatio="xMidYMid meet">

<g transform="translate(0.000000,128.000000) scale(0.100000,-0.100000)"
fill="#000000" stroke="none">
<path d="M1095 1266 c-16 -7 -49 -34 -72 -58 l-43 -44 95 -94 95 -94 40 39
c70 68 87 132 50 192 -36 60 -108 86 -165 59z"/>
<path d="M704 888 l-211 -213 -17 -85 c-18 -97 -20 -126 -7 -134 11 -7 194 30
219 43 9 5 109 102 222 215 l205 206 -90 90 c-49 49 -94 90 -100 90 -6 0 -105
-96 -221 -212z"/>
<path d="M80 1038 c-18 -13 -43 -36 -54 -51 -21 -28 -21 -38 -21 -457 0 -419
0 -429 21 -457 11 -15 36 -38 54 -51 l34 -23 427 3 c417 3 428 4 456 24 63 48
68 66 71 318 2 126 1 240 -3 253 -9 36 -48 50 -80 29 l-25 -16 0 -233 c0 -186
-3 -237 -14 -253 -14 -18 -32 -19 -401 -22 -337 -2 -391 -1 -411 13 l-24 15 0
399 c0 373 1 399 18 414 16 15 49 17 250 17 196 0 233 2 246 16 19 18 20 38 6
65 -10 18 -24 19 -264 19 -246 0 -254 -1 -286 -22z"/>
</g>
</svg>
